<?xml version="1.0" encoding="UTF-8" standalone="no"?>
<!-- Created with Inkscape (http://www.inkscape.org/) -->

<svg
   xmlns:dc="http://purl.org/dc/elements/1.1/"
   xmlns:cc="http://creativecommons.org/ns#"
   xmlns:rdf="http://www.w3.org/1999/02/22-rdf-syntax-ns#"
   xmlns:svg="http://www.w3.org/2000/svg"
   xmlns="http://www.w3.org/2000/svg"
   xmlns:sodipodi="http://sodipodi.sourceforge.net/DTD/sodipodi-0.dtd"
   xmlns:inkscape="http://www.inkscape.org/namespaces/inkscape"
   width="210mm"
   height="297mm"
   id="svg4151"
   version="1.1"
   inkscape:version="0.48.4 r9939"
   sodipodi:docname="New document 6">
  <defs
     id="defs3">
	
	
	
	
	
	
	
	
</defs>
  <sodipodi:namedview
     inkscape:document-units="mm"
     id="base"
     pagecolor="#ffffff"
     bordercolor="#666666"
     borderopacity="1.0"
     inkscape:pageopacity="0.0"
     inkscape:pageshadow="2"
     inkscape:zoom="1.4"
     inkscape:cx="159.61821"
     inkscape:cy="584.10778"
     inkscape:current-layer="layer1"
     showgrid="false"
     inkscape:window-width="1920"
     inkscape:window-height="1018"
     inkscape:window-x="-8"
     inkscape:window-y="-8"
     inkscape:window-maximized="1" />
  <metadata
     id="metadata4">
    <rdf:RDF>
      <cc:Work
         rdf:about="">
        <dc:format>image/svg+xml</dc:format>
        <dc:type
           rdf:resource="http://purl.org/dc/dcmitype/StillImage" />
        <dc:title></dc:title>
      </cc:Work>
    </rdf:RDF>
  </metadata>
  <g
     inkscape:label="Layer 1"
     inkscape:groupmode="layer"
     id="layer1">
    <rect
       style="fill:#222222;fill-opacity:1;fill-rule:evenodd"
       id="rect4771"
       width="500"
       height="335"
       x="165"
       y="284.505" />
    <g
       id="g4773">
      <g
         style="fill:#eeeeec;fill-opacity:1"
         transform="matrix(0.9817378,0.19023906,-0.19023906,0.9817378,-160.03286,-78.146902)"
         id="g4754">
        <path
           inkscape:connector-curvature="0"
           d="m 664.40326,473.91149 c 27.5871,-13.52191 39.02852,-46.96233 25.50661,-74.54943 -13.52192,-27.5871 -46.96234,-39.02852 -74.54943,-25.5066 -27.5871,13.52191 -39.02853,46.96233 -25.50661,74.54943 13.52191,27.58709 46.96233,39.02852 74.54943,25.5066 z m -75.62874,-55.1121 c 0.4799,0.59038 0.96797,0.95447 1.32001,0.78192 0.77448,-0.37962 1.02447,-3.77281 1.02447,-3.77281 0,0 2.25993,-3.98939 3.3236,-1.43061 1.07334,2.5461 2.82363,4.95091 3.58287,6.49988 0.75923,1.54897 5.37274,3.89991 4.91469,2.96541 -0.45492,-0.92811 -0.50902,-4.16431 -1.19296,-5.55966 -0.6808,-1.38896 0.39487,-1.15411 3.10143,-0.75015 2.69063,0.40383 5.44746,2.51374 5.44746,2.51374 0,0 2.91966,0.87109 3.60965,1.50138 0.70605,0.61449 2.33288,-1.52452 2.33568,-2.68491 0.0123,-1.15713 0.0841,-1.77184 1.19124,-2.68759 1.08801,-0.92228 2.63698,-1.68151 2.26644,-3.60359 -0.37042,-1.93802 0.0367,-4.63818 -2.96478,-6.04868 -3.00146,-1.41049 -4.67927,-2.50129 -6.61437,-2.90234 -1.91917,-0.40092 -4.36876,-2.66142 -4.36876,-2.66142 0,0 1.65174,-4.08027 2.12807,-5.45689 0.46365,-1.38628 2.16647,-1.44295 2.8503,-0.43652 0.68056,1.01596 -0.40384,2.69062 0.43092,5.17108 0.81882,2.48033 3.36188,2.19439 3.61593,1.10931 0.22531,-1.07893 0.87086,-3.69751 0.64811,-4.15197 -0.22903,-0.46725 -1.24499,0.21332 -2.2236,-1.41072 -0.99128,-1.63369 0.55711,-3.93271 1.57343,-3.85135 1.00677,0.0781 5.43386,-3.42553 7.14554,-5.81252 1.71795,-2.37419 1.81747,-5.68569 2.67948,-7.45775 0.40841,-0.85114 1.31522,-2.64516 2.0181,-4.45036 23.25112,-6.22072 48.47129,4.62968 59.4551,27.03859 1.28003,2.6115 2.25033,5.28749 3.05156,7.97489 -0.42068,-0.0161 -0.82216,-0.0416 -1.34814,-0.0457 -3.09212,-0.0245 -8.66715,2.70816 -8.44115,3.55794 0.23554,0.85305 0,0 -2.15412,0.28582 -2.1702,0.30164 -3.25797,1.59691 -4.24589,0.74748 -0.99107,-0.85584 -2.23292,-0.63613 -2.95074,1.44631 -0.58427,1.72325 -1.09068,2.06673 1.76904,1.24454 2.85972,-0.8222 3.64061,-1.20495 3.16439,0.5606 -0.47948,1.77508 -0.50113,3.70681 0.50867,3.40238 1.01294,-0.29803 3.4081,-2.44052 4.01965,-1.97025 0.61796,0.46714 -0.24125,1.07881 3.08259,0.0212 3.33651,-1.04795 4.48119,-0.26741 5.40964,0.0396 0.92193,0.32608 3.77606,1.41981 2.52152,2.03472 -1.22894,0.60237 -1.85866,2.83215 -0.86806,2.53713 0.39948,-0.12436 1.01772,-0.49884 1.65202,-0.88913 0.0958,3.20784 -0.092,6.38793 -0.57902,9.52422 -1.36318,-0.5623 -4.94348,2.28811 -5.41074,2.51713 -0.44805,0.21962 -2.14819,-0.86817 -3.06989,-0.41639 -0.93451,0.45805 0.73758,3.4807 0.73758,3.4807 0,0 -1.45831,-0.62681 -3.52481,-1.3445 -2.08896,-0.69874 0.58933,0.86222 -0.10288,2.9321 -0.71142,2.0793 -0.47646,1.39256 -0.33809,3.24585 0.13836,1.8533 -1.54851,1.91009 -3.70624,1.03866 -2.16426,-0.85236 -2.39573,0.6027 -3.10435,1.52161 -0.69908,0.92216 -0.18412,3.93248 -0.34379,4.77283 -0.15653,0.84676 -3.04128,3.22129 -3.42021,4.37552 -0.40127,1.15724 0.50565,3.78491 0.80997,4.40578 0.30118,0.61447 -3.10738,1.90414 -3.80948,3.20884 -0.70524,1.29829 -2.64012,1.67511 -3.71544,2.20218 -1.10093,0.53962 -3.36691,5.29407 -4.21949,6.68046 -0.31967,0.51392 -0.33488,1.2279 -0.1715,1.93373 -24.31999,8.75307 -51.93173,-2.0206 -63.56497,-25.75447 -4.37985,-8.91946 -5.87576,-18.49834 -4.93568,-27.72322 z"
           id="path2990"
           style="fill:#eeeeec;fill-opacity:1" />
        <path
           inkscape:connector-curvature="0"
           d="m 630.10373,383.25218 c 1.78732,-1.06658 1.21825,-7.31309 -0.64098,-6.02073 -2.11577,1.4816 -1.14633,7.08732 0.64098,6.02073 z"
           id="path2992"
           style="fill:#eeeeec;fill-opacity:1" />
        <path
           inkscape:connector-curvature="0"
           d="m 618.80987,446.81037 c 1.07241,0.24439 6.08684,0.67616 7.31321,1.60718 1.22638,0.93102 2.785,0.56398 1.94733,-1.14501 -0.83767,-1.709 -1.51556,-3.86941 -1.20878,-5.17086 0.32283,-1.31726 -0.67474,-2.55889 -1.82211,-1.7901 -1.16004,0.75912 -3.31812,-0.87424 -6.01189,-1.28447 -2.70016,-0.4071 -4.70731,-0.56643 -7.55178,-1.67283 -2.83807,-1.10953 -5.77344,-1.20288 -7.55179,-1.67282 -1.76228,-0.48576 -3.85392,-0.0401 -4.55311,0.49319 -1.74164,1.33792 4.61991,2.3478 5.30979,2.58917 0.68347,0.2445 6.6203,1.74834 7.45797,3.45733 0.83139,1.69619 5.59549,4.35437 6.67116,4.58922 z"
           id="path2994"
           style="fill:#eeeeec;fill-opacity:1" />
        <path
           inkscape:connector-curvature="0"
           d="m 606.51336,430.35573 c 2.1391,2.42064 5.05921,4.44258 6.20389,5.22312 1.15422,0.7838 4.54741,1.03379 5.84873,1.3565 1.31086,0.32597 2.16647,-1.44295 1.10349,-2.07301 -1.08532,-0.62705 -2.99506,-1.41363 -3.67889,-2.42006 -0.68056,-1.01596 -2.30552,-2.33906 -4.45068,-3.58976 -2.14517,-1.25071 -3.45278,-1.18135 -4.83591,-2.04347 -1.39267,-0.86539 -5.3255,-1.81143 -5.3255,-1.81143 -1.16004,0.75912 -0.0212,3.08258 0.98244,3.55915 0.99408,0.4733 2.02274,-0.60247 4.15243,1.79896 z"
           id="path2996"
           style="fill:#eeeeec;fill-opacity:1" />
        <path
           inkscape:connector-curvature="0"
           d="m 628.75726,447.89643 c -0.43957,1.96987 1.51499,2.32962 2.12957,2.41737 0.61784,0.0782 2.48383,-0.45536 3.9511,-1.36508 0.94506,-0.58229 2.07385,-1.42136 2.18657,-1.9688 0.11684,0.14119 0.31663,0.27348 0.68247,0.37201 1.77195,0.47308 2.76266,0.56699 4.54683,-0.50599 1.78092,-1.06345 5.10184,-1.3496 4.80694,-2.35614 -0.29489,-1.00654 -2.83504,-1.49207 -3.62873,-1.10304 -0.76808,0.37648 -5.09543,1.34646 -5.09543,1.34646 -0.56943,0.65222 -1.40078,1.36931 -1.44021,1.92052 -0.1329,-0.12539 -0.36169,-0.21965 -0.82378,-0.23924 -2.15751,-0.0936 -3.71242,1.81965 -4.9516,0.89491 -1.20391,-0.94997 -2.13201,-0.49505 -2.36373,0.58702 z"
           id="path2998"
           style="fill:#eeeeec;fill-opacity:1" />
        <path
           inkscape:connector-curvature="0"
           d="m 656.03221,442.4025 c 0.32563,1.55511 3.30533,0.88051 2.70611,-0.74689 -0.59922,-1.62741 -3.00751,-0.64544 -2.70611,0.74689 z"
           id="path3000"
           style="fill:#eeeeec;fill-opacity:1" />
        <path
           inkscape:connector-curvature="0"
           d="m 665.49133,434.68595 c -0.3226,1.69025 -1.40061,3.76665 -0.71038,4.76994 1.06182,1.58324 2.93106,-2.58776 2.93106,-2.58776 0,0 2.33929,-1.52766 1.80594,-2.61578 -0.53021,-1.08172 -3.70402,-1.25665 -4.02662,0.4336 z"
           id="path3002"
           style="fill:#eeeeec;fill-opacity:1" />
        <path
           inkscape:connector-curvature="0"
           d="m 650.86187,432.25899 c 1.61496,0.16898 2.27262,-4.38459 3.42044,-3.59766 1.14781,0.78694 0.61201,1.62114 2.37454,2.47988 1.7752,0.86841 3.70659,-0.27673 3.70659,-0.27673 0,0 -1.98281,-3.64038 -4.14985,-3.73722 -2.15425,-0.10311 -3.7663,-0.63868 -1.59308,-1.32285 2.16041,-0.67788 2.86252,-1.98258 1.94362,-2.6912 -0.91577,-0.70221 -3.63748,1.21135 -4.49028,1.81988 -0.85921,0.61167 -2.62779,0.51798 -2.62779,0.51798 -0.78391,0.76529 -0.25067,1.46448 0.20773,3.16091 0.45514,1.70597 -0.41641,3.47476 1.20808,3.64701 z"
           id="path3004"
           style="fill:#eeeeec;fill-opacity:1" />
        <path
           inkscape:connector-curvature="0"
           d="m 657.22435,417.02625 c -0.62087,0.30432 -4.56814,3.19965 -4.96336,3.59183 -0.38555,0.37951 -3.40856,1.28967 -3.40856,1.28967 -0.54197,1.61519 0.75319,2.31404 2.38689,1.32275 1.63683,-0.98489 4.96347,-3.2029 5.72515,-3.57624 0.78729,-0.38589 0.87435,-2.92919 0.25988,-2.62801 z"
           id="path3006"
           style="fill:#eeeeec;fill-opacity:1" />
        <path
           inkscape:connector-curvature="0"
           d="m 664.17423,418.621 c 2.0693,-0.4427 0.73843,-6.70481 -0.57558,-6.63231 -1.719,0.0884 -1.51932,7.08756 0.57558,6.63231 z"
           id="path3008"
           style="fill:#eeeeec;fill-opacity:1" />
        <path
           inkscape:connector-curvature="0"
           d="m 638.10013,437.54571 c 0.76808,-0.37648 2.31066,-1.13258 3.55251,-1.35229 1.23871,-0.22612 4.95764,-1.65998 4.10728,-2.97376 -0.83755,-1.32006 -2.20834,-3.33931 -1.34017,-5.48751 0.86503,-2.15459 2.03439,-3.68831 0.26524,-5.32178 -1.75634,-1.63975 -3.91082,-2.11585 -3.28402,-3.57416 0.62681,-1.45832 1.71796,-2.3742 1.33834,-3.14868 -0.38275,-0.78089 -1.57028,3.45288 -4.3875,-1.50116 -0.59736,-1.05675 -2.32649,1.52138 -1.94676,2.6848 0.37659,1.15702 2.69725,1.17856 -0.24708,2.62173 -2.93793,1.44004 -1.96549,3.84507 -2.35094,4.61351 -0.39498,0.76517 -0.92775,1.21684 -2.02856,2.14539 -1.07835,0.9096 -0.78974,2.30821 -0.71736,3.23329 0.0724,0.92508 -3.16102,-0.18121 -3.47116,0.74084 -0.32295,0.92833 1.58107,3.64677 3.89301,5.57783 2.28633,1.94361 5.83628,2.1247 6.61717,1.74195 z"
           id="path3010"
           style="fill:#eeeeec;fill-opacity:1" />
        <path
           inkscape:connector-curvature="0"
           d="m 639.93202,398.99552 c -0.38847,1.15096 -1.95269,3.83879 -1.57272,5.3752 0.3639,1.55222 2.64886,-3.9895 3.04978,-5.90866 0.40418,-1.92871 2.95364,-2.21778 3.03487,-3.21815 0.0717,-1.00364 0.0717,-1.00364 0.0717,-1.00364 0,0 -1.84364,0.53056 -3.46163,0.74411 -1.63078,0.21982 -2.49244,2.75381 -2.9321,-0.10289 -0.43652,-2.85029 2.11596,-3.52189 0.73575,-5.15548 -1.37382,-1.63672 -3.14868,-1.33833 -3.61594,-1.10931 -1.08812,0.53335 0.98175,1.63043 -0.0275,3.47465 -1.02831,1.8377 -2.50187,3.13948 -0.65114,4.5345 1.82827,1.41397 5.77017,1.21242 5.3689,2.36967 z"
           id="path3012"
           style="fill:#eeeeec;fill-opacity:1" />
        <path
           inkscape:connector-curvature="0"
           d="m 648.3934,402.15156 c -0.99723,-0.47971 -3.75081,-2.19429 -5.15862,-0.74215 -0.42434,0.44615 -0.41617,3.84776 1.29282,3.01009 1.70899,-0.83767 4.87269,-1.80091 3.8658,-2.26794 z"
           id="path3014"
           style="fill:#eeeeec;fill-opacity:1" />
        <path
           inkscape:connector-curvature="0"
           d="m 648.88219,399.60187 c 2.71855,-1.51509 0.57619,-3.92619 -1.67209,-3.02265 -0.63969,0.26592 -1.03693,4.54101 1.67209,3.02265 z"
           id="path3016"
           style="fill:#eeeeec;fill-opacity:1" />
        <path
           inkscape:connector-curvature="0"
           d="m 650.48841,402.08524 c -0.80197,3.85427 -0.94627,3.15497 -2.81237,3.29961 -1.84689,0.13522 -3.33571,3.3656 -2.49524,3.9142 0.84047,0.5486 3.80354,-2.05484 5.25883,-1.04551 1.44562,1.02202 1.52405,1.18204 2.92896,0.0965 1.39512,-1.05693 1.871,-3.98927 0.87994,-4.84511 -0.99106,-0.85583 -3.76012,-1.41968 -3.76012,-1.41968 z"
           id="path3018"
           style="fill:#eeeeec;fill-opacity:1" />
      </g>
      <path
         id="path4715"
         d="m 435.8115,340.16209 -6.78746,1.57913 -1.86764,-6.83193 c -2.36495,-8.65112 -11.6866,-13.96114 -20.79218,-11.84267 -9.10558,2.11846 -14.58283,10.87151 -12.21788,19.52263 l 1.86608,6.82624 -16.93774,3.94065 -1.86609,-6.82623 c -2.36495,-8.65113 -11.68659,-13.96113 -20.79218,-11.84268 -9.10558,2.11847 -14.58283,10.87153 -12.21788,19.52264 l 1.86608,6.82624 -16.93774,3.94066 -1.86608,-6.82623 c -2.36496,-8.65114 -11.6866,-13.96114 -20.79219,-11.84268 -9.10558,2.11845 -14.58282,10.87151 -12.21787,19.52264 l 1.86608,6.82622 -8.66669,2.01636 c -14.48363,3.36969 -23.29911,16.98754 -19.64645,30.34917 l 37.41514,136.86681 c 3.65265,13.36162 18.41402,21.49419 32.89765,18.1245 l 148.35982,-34.5167 c 14.48982,-3.37113 23.2991,-16.98754 19.64645,-30.34916 L 468.70759,358.28087 C 465.0565,344.92496 450.30131,336.79095 435.8115,340.16209 z m -32.38649,0.26844 c -1.07413,-3.92923 1.29666,-7.88354 5.28384,-8.81117 3.98717,-0.92764 8.10712,1.51656 9.18124,5.44579 l 7.63269,27.92082 c 1.07413,3.92922 -1.29666,7.88353 -5.28383,8.81117 -3.98718,0.92764 -8.10713,-1.51656 -9.18125,-5.4458 l -7.63269,-27.92081 z m -49.95399,11.62205 c -1.07413,-3.92922 1.29666,-7.88353 5.28384,-8.81117 3.98716,-0.92763 8.10712,1.51656 9.18124,5.4458 l 7.63269,27.92082 c 1.07413,3.92923 -1.29666,7.88353 -5.28383,8.81118 -3.98718,0.92762 -8.10713,-1.51657 -9.18125,-5.4458 l -7.63269,-27.92083 z m -49.9478,11.62063 c -1.07413,-3.92922 1.29666,-7.88354 5.28383,-8.81117 3.98718,-0.92764 8.10713,1.51656 9.18125,5.44579 l 7.63269,27.92082 c 1.07413,3.92922 -1.29667,7.88354 -5.28384,8.81117 -3.98717,0.92764 -8.10712,-1.51656 -9.18124,-5.44579 l -7.63269,-27.92082 z m 187.14693,135.07568 c 1.5044,5.50319 -2.12442,11.10886 -8.08973,12.49672 L 334.22061,545.7623 c -5.96531,1.38786 -12.04169,-1.95984 -13.5461,-7.46303 L 286.3773,412.83803 456.37293,373.28764 490.67015,498.74889 z"
         inkscape:connector-curvature="0"
         style="fill:#eeeeec;fill-opacity:1" />
    </g>
    <path
       id="path4877"
       d="m 575.83147,366.26397 c 15.29435,0 27.69532,12.40117 27.69532,27.69532 0,15.05932 -9.07516,16.81501 -10.78139,33.23437 0,1.53313 -1.23639,2.76953 -2.76953,2.76953 h -28.28879 c -1.53313,0 -2.76953,-1.2364 -2.76953,-2.76953 h -0.006 c -1.7001,-16.41936 -10.77526,-18.17505 -10.77526,-33.23437 0,-15.29415 12.40117,-27.69532 27.69531,-27.69532 m 13.84767,66.46875 c 1.53313,0 2.76953,1.2364 2.76953,2.76953 0,1.53314 -1.2364,2.76954 -2.76953,2.76954 h -27.69533 c -1.53313,0 -2.76953,-1.2364 -2.76953,-2.76954 0,-1.53313 1.2364,-2.76953 2.76953,-2.76953 h 27.69533 m 0,8.3086 c 1.53313,0 2.76953,1.23639 2.76953,2.76953 0,1.53313 -1.2364,2.76953 -2.76953,2.76953 h -27.69533 c -1.53313,0 -2.76953,-1.2364 -2.76953,-2.76953 0,-1.53314 1.2364,-2.76953 2.76953,-2.76953 h 27.69533 m -2.76953,8.30859 c 0,3.06013 -2.47893,5.53906 -5.53907,5.53906 h -11.07813 c -3.06014,0 -5.53906,-2.47893 -5.53906,-5.53906 h 22.15626 M 575.8316,359.93362 c -18.76239,0 -34.02567,15.26328 -34.02567,34.02567 0,9.42135 3.07873,14.83064 5.78634,19.60927 2.2997,4.04312 4.2904,7.54816 5.00118,14.06407 0.0681,1.44669 0.4823,2.80672 1.15608,3.9998 -0.55628,1.17448 -0.86547,2.48506 -0.86547,3.86982 0,1.49614 0.35865,2.90564 1.00158,4.1543 -0.64293,1.24886 -1.00158,2.65836 -1.00158,4.1543 0,3.90088 2.46666,7.23302 5.92244,8.52501 1.32285,5.10623 5.9717,8.88347 11.48604,8.88347 h 11.07813 c 5.51434,0 10.16319,-3.77724 11.48624,-8.88347 3.45558,-1.29199 5.92225,-4.62413 5.92225,-8.52501 0,-1.49614 -0.36479,-2.90564 -1.00772,-4.1543 0.64293,-1.24886 1.00772,-2.65835 1.00772,-4.1543 0,-1.38476 -0.3092,-2.69534 -0.86548,-3.86369 0.67378,-1.1994 1.08189,-2.56557 1.14995,-4.01206 0.71711,-6.50959 2.70148,-10.00869 5.00118,-14.05794 2.71381,-4.7725 5.79234,-10.18792 5.79234,-19.60927 0,-18.76239 -15.26328,-34.02567 -34.02568,-34.02567 l 0,0 z"
       inkscape:connector-curvature="0"
       style="fill:#eeeeee;fill-opacity:1" />
  </g>
</svg>
